<?xml version="1.0" ?><svg id="Os_X" style="enable-background:new 0 0 32 32;" version="1.1" viewBox="0 0 32 32" xml:space="preserve" xmlns="http://www.w3.org/2000/svg" xmlns:xlink="http://www.w3.org/1999/xlink"><g><path d="M16,0C7.178,0,0,7.178,0,16s7.178,16,16,16s16-7.178,16-16S24.822,0,16,0z M16,30C8.28,30,2,23.72,2,16S8.28,2,16,2   s14,6.28,14,14S23.72,30,16,30z"/><polygon points="23.293,7.293 16,14.586 8.707,7.293 7.293,8.707 14.586,16 7.293,23.293 8.707,24.707 16,17.414 23.293,24.707    24.707,23.293 17.414,16 24.707,8.707  "/></g></svg>